<svg xmlns="http://www.w3.org/2000/svg" xmlns:xlink="http://www.w3.org/1999/xlink" width="606" height="303"><rect id="backgroundrect" width="100%" height="100%" x="0" y="0" fill="none" stroke="none"/>
 <title>Car Outline - Top View</title>
 <defs>
  <linearGradient id="linearGradient3759">
   <stop id="stop3761" offset="0" stop-color="#1a1a1a"/>
   <stop id="stop3763" offset="1" stop-opacity="0" stop-color="#f30000"/>
  </linearGradient>
  <linearGradient x1="14.678357124328613" y1="19.872129440307617" x2="13.695144653320312" y2="19.592937469482422" id="linearGradient4149" xlink:href="#linearGradient3759"/>
  <linearGradient x1="16.4916934967041" y1="22.266809463500977" x2="13.615250587463379" y2="22.120346069335938" id="linearGradient4153" xlink:href="#linearGradient3759"/>
  <linearGradient x1="15.469635963439941" y1="19.799638748168945" x2="12.749702453613281" y2="19.594921112060547" id="linearGradient4155" xlink:href="#linearGradient3759"/>
  <linearGradient x1="14.678357124328613" y1="16.723962783813477" x2="13.695144653320312" y2="17.003154754638672" id="linearGradient4185" xlink:href="#linearGradient3759"/>
  <linearGradient x1="15.711045265197754" y1="17.111928939819336" x2="15.211872100830078" y2="17.109569549560547" id="linearGradient4187" xlink:href="#linearGradient3759"/>
  <linearGradient x1="15.469635963439941" y1="16.79645538330078" x2="12.749702453613281" y2="17.001171112060547" id="linearGradient4189" xlink:href="#linearGradient3759"/>
  <linearGradient x1="17.076677322387695" y1="18.96965789794922" x2="13.570120811462402" y2="18.923824310302734" id="linearGradient4195" xlink:href="#linearGradient3759"/>
  <linearGradient x1="16.4916934967041" y1="18.58003807067871" x2="13.615250587463379" y2="18.726499557495117" id="linearGradient4197" xlink:href="#linearGradient3759"/>
  <linearGradient x1="7.706728935241699" y1="27.506839752197266" x2="6.1093621253967285" y2="27.724769592285156" id="linearGradient4201" xlink:href="#linearGradient3759"/>
  <linearGradient x1="15.711045265197754" y1="19.484155654907227" x2="15.211872100830078" y2="19.486515045166016" id="linearGradient4203" xlink:href="#linearGradient3759"/>
  <linearGradient x1="7.532872200012207" y1="14.948687553405762" x2="7.275720119476318" y2="14.757619857788086" id="linearGradient4205" xlink:href="#linearGradient3759"/>
  <linearGradient x1="7.217496871948242" y1="15.21117877960205" x2="6.363285064697266" y2="13.825057029724121" id="linearGradient4207" xlink:href="#linearGradient3759"/>
  <linearGradient x1="17.076677322387695" y1="21.877193450927734" x2="13.570120811462402" y2="21.92302703857422" id="linearGradient4209" xlink:href="#linearGradient3759"/>
  <linearGradient x1="6.884072780609131" y1="31.698963165283203" x2="5.286706924438477" y2="31.19447898864746" id="linearGradient4211" xlink:href="#linearGradient3759"/>
  <linearGradient x1="7.706728935241699" y1="34.382484436035156" x2="6.1093621253967285" y2="34.164554595947266" id="linearGradient4213" xlink:href="#linearGradient3759"/>
 </defs>
 <g style="" class="currentLayer">
  <title>Layer 1</title>
  <path d="m351.6878888178711,7.000000354980472 c-0.9440000000000001,0.005600000000000001 -2.954987,0.19090300000000004 -4.048981,0.5868990000000002 l-2.19101,0.939003 l5.419006,22.497803 l-78.136993,0.17700200000000002 c-1.5250240000000002,0.003006000000000001 -3.059998,-0.009003000000000002 -4.597015,-0.020004000000000004 c-3.074982,-0.020996000000000004 -6.175995,-0.06500200000000002 -9.292999,-0.13699300000000003 c-4.565002,-0.10501100000000001 -9.182983,-0.258011 -13.811981,-0.450005 c-0.24700900000000003,-0.010002000000000002 -0.4950260000000001,-0.028999000000000004 -0.7430110000000001,-0.03900100000000001 c-9.347992,-0.3950040000000001 -18.786011,-0.9339980000000001 -28.19101,-1.526001 c-12.724991,-0.8030010000000001 -25.366989,-1.6950000000000003 -37.639999,-2.426003 c-9.095001,-0.542 -17.987,-0.988998 -26.528,-1.251999 c-5.864990000000001,-0.18100000000000002 -11.55899,-0.285995 -17.05899,-0.253998 c-2.702011,0.014999000000000002 -5.3639980000000005,0.05799900000000001 -7.962997,0.137001 c-2.598007,0.07799500000000002 -5.246002,0.22200000000000003 -7.923004,0.410995 c-1.337997,0.09400200000000003 -2.6780090000000003,0.19400000000000003 -4.029999,0.31300400000000006 c-4.050003,0.35499600000000003 -8.167007,0.8269960000000001 -12.266006,1.368996 c-0.006996000000000002,0.0009990000000000005 -0.013000000000000003,-0.0009990000000000005 -0.019997000000000004,0 c-2.737,0.36200000000000004 -5.458,0.7670060000000001 -8.177002,1.193001 c-2.720001,0.42700200000000005 -5.43,0.8750000000000001 -8.099998,1.349998 c-2.662399,0.474007 -5.3022,0.980003 -7.8834990000000005,1.487015 c-0.006302000000000002,0.0009920000000000005 -0.013298000000000003,-0.0010070000000000003 -0.019600000000000003,0 c-1.293602,0.253998 -2.5477980000000002,0.5039980000000001 -3.814804,0.7629850000000001 c-3.794701,0.776993 -7.471001,1.575012 -10.955597000000001,2.367004 c-0.006302000000000002,0.0019990000000000008 -0.013199000000000002,-0.0009920000000000005 -0.019501000000000004,0 c-2.326599,0.529007 -4.5621030000000005,1.048996 -6.710197,1.565002 c-4.297005,1.031998 -8.210701,2.024994 -11.601204,2.914993 c-5.085598,1.335007 -9.003899,2.459 -11.327198,3.130997 c-1.548599,0.44801300000000005 -2.3867000000000003,0.70401 -2.3867000000000003,0.70401 l-8.568802,2.347 c-0.5649990000000001,0.15599100000000005 -1.113197,0.43399000000000004 -1.6433980000000001,0.8219910000000001 c-0.18009900000000004,0.132004 -0.352001,0.27301000000000003 -0.528202,0.43100000000000005 c-0.6884000000000001,0.6130070000000001 -1.3466,1.421005 -1.975899,2.406006 c-0.002899000000000001,0.0039980000000000016 0.002899000000000001,0.014999000000000002 0,0.018997000000000003 c-0.31319800000000003,0.49200400000000005 -0.6400990000000002,1.027008 -0.9389990000000001,1.604996 c-0.0027010000000000007,0.005005000000000001 0.002598000000000001,0.014008000000000001 0,0.019012 c-0.29900000000000004,0.5779880000000001 -0.5955010000000001,1.19899 -0.880402,1.858994 c-0.0023000000000000004,0.005005000000000001 0.0023000000000000004,0.014008000000000001 0,0.018997000000000003 c-2.295696,5.327011 -4.144398,13.229004 -5.5951,22.675003 c-0.0009990000000000005,0.0059970000000000015 0.0009040000000000003,0.013000000000000003 0,0.018997000000000003 c-0.022499000000000005,0.14700300000000002 -0.036396000000000005,0.30300900000000003 -0.05869700000000001,0.44999700000000004 c-0.31590300000000004,2.086014 -0.6211010000000001,4.256012 -0.8999020000000001,6.476013 c-0.019100000000000002,0.15100100000000002 -0.03979900000000001,0.296997 -0.05870100000000001,0.44999700000000004 c-0.31399900000000003,2.530991 -0.5926970000000001,5.134995 -0.8607980000000002,7.804993 c-0.0006980000000000002,0.0070040000000000015 0.0005990000000000001,0.014008000000000001 0,0.020004000000000004 c-0.13370100000000001,1.332001 -0.2687,2.6889950000000002 -0.3913000000000001,4.050003 c-0.0006030000000000001,0.0059970000000000015 0.0005990000000000001,0.013000000000000003 0,0.018997000000000003 c-0.12260100000000002,1.360992 -0.24039800000000003,2.723007 -0.3521,4.108994 c-0.0006010000000000002,0.006012000000000002 0.0005000000000000001,0.013000000000000003 0,0.019012 c-0.22400100000000003,2.778 -0.424601,5.599991 -0.6065010000000001,8.451996 c-0.00040100000000000015,0.0059970000000000015 0.00040100000000000015,0.013000000000000003 0,0.018997000000000003 c-0.5462990000000001,8.567001 -0.9137990000000001,17.397003 -1.115099,26.020004 c-0.00020000000000000006,0.0059970000000000015 0.00009900000000000003,0.013000000000000003 0,0.018997000000000003 c-0.1343,5.753006 -0.19570200000000004,11.401993 -0.19570200000000004,16.845001 c0,0.6060030000000001 0.017200000000000003,1.229004 0.019501000000000004,1.8390050000000002 c-0.0023000000000000004,0.6100010000000001 -0.019501000000000004,1.232986 -0.019501000000000004,1.8389890000000002 c0,5.442001 0.06140100000000001,11.091003 0.19560100000000002,16.843994 c0.00020000000000000006,0.007019000000000002 -0.00009900000000000003,0.013000000000000003 0,0.020020000000000003 c0.20140100000000002,8.622986000000001 0.5689010000000001,17.453003 1.1151010000000001,26.018982 c0.0003990000000000001,0.007019000000000002 -0.00040100000000000015,0.013000000000000003 0,0.020020000000000003 c0.18190000000000003,2.8509830000000003 0.38250000000000006,5.673004000000001 0.6064990000000001,8.450989 c0.0005020000000000002,0.006989000000000003 -0.0005000000000000001,0.014008000000000001 0,0.019989000000000003 c0.11170000000000002,1.38501 0.22949800000000006,2.7470090000000003 0.352098,4.108002 c0.0006030000000000001,0.007019000000000002 -0.0005000000000000001,0.013000000000000003 0,0.020020000000000003 c0.12270400000000002,1.360992 0.25760299999999997,2.71698 0.3913000000000001,4.048981 c0.0006030000000000001,0.007019000000000002 -0.0005950000000000002,0.014008000000000001 0,0.020020000000000003 c0.268105,2.67099 0.546803,5.274994 0.8608020000000001,7.806 c0.018898,0.15197800000000003 0.03960000000000001,0.29800400000000005 0.05870100000000001,0.4499820000000001 c0.278801,2.218994 0.5840000000000001,4.390015 0.8999020000000001,6.4750060000000005 c0.022297000000000004,0.14801000000000003 0.03619800000000001,0.30401600000000006 0.05869700000000001,0.450012 c0.0009000000000000003,0.006989000000000003 -0.0009000000000000003,0.013977000000000003 0,0.019989000000000003 c1.450802,9.445007 3.299503,17.347015 5.5952,22.674011 c0.0023000000000000004,0.005981000000000002 -0.0023990000000000005,0.013977000000000003 0,0.019989000000000003 c0.284901,0.6600040000000001 0.581303,1.279999 0.880302,1.858002 c0.002598000000000001,0.005005000000000001 -0.0026020000000000006,0.014984000000000003 0,0.019989000000000003 c0.29890100000000003,0.5769960000000001 0.6257970000000002,1.113007 0.9389990000000001,1.6040040000000002 c0.002899000000000001,0.0039980000000000016 -0.002800000000000001,0.015015000000000002 0,0.019012 c0.6293980000000001,0.984985 1.287598,1.794006 1.975899,2.406982 c0.17620100000000002,0.15701300000000004 0.34810300000000005,0.29800400000000005 0.528301,0.43002300000000004 c0.5300980000000001,0.38800000000000007 1.0784,0.6659850000000002 1.6432990000000003,0.8219910000000001 l8.568802,2.347992 c0,0 0.8381000000000001,0.256012 2.3867000000000003,0.70401 c2.323299,0.6709900000000002 6.2416,1.794983 11.327297,3.130005 c3.390404,0.8899840000000001 7.3041,1.8829960000000001 11.601105,2.914978 c2.148193,0.516022 4.383598,1.036011 6.710197,1.565002 c0.006401000000000002,0.0010070000000000003 0.013298000000000003,-0.0009770000000000004 0.019600000000000003,0 c3.484596,0.792023 7.160896,1.5899960000000002 10.955498,2.367004 c1.267105,0.26001 2.5213010000000002,0.509003 3.814903,0.7630000000000001 c0.006302000000000002,0.0020140000000000006 0.013199000000000002,-0.0010070000000000003 0.019501000000000004,0 c2.581299,0.507019 5.2211,1.013 7.883598,1.487 c2.669998,0.47500600000000004 5.379997,0.924011 8.099998,1.350006 c2.719002,0.425995 5.440002,0.8309940000000001 8.177002,1.192993 c0.006996000000000002,0.0010070000000000003 0.013000000000000003,0 0.019997000000000004,0 c4.098999,0.5429990000000001 8.216003,1.014008 12.266006,1.369995 c1.35199,0.11901900000000001 2.6920010000000003,0.21902500000000003 4.029999,0.31301900000000005 c2.677002,0.18798800000000004 5.324997,0.33200100000000005 7.923004,0.41098000000000007 c2.598999,0.07800300000000002 5.260986,0.12100200000000001 7.962997,0.137024 c5.5,0.03097500000000001 11.192993,-0.07400500000000002 17.05899,-0.255005 c8.541,-0.263 17.432999,-0.710022 26.528,-1.252014 c12.27301,-0.7309880000000001 24.915009,-1.622986 37.639999,-2.425995 c9.404999,-0.59201 18.843018,-1.1310120000000001 28.19101,-1.526001 c0.24798600000000004,-0.010010000000000002 0.49600200000000005,-0.02798500000000001 0.7430110000000001,-0.03900100000000001 c4.628998,-0.19101000000000004 9.246979,-0.34500100000000006 13.811981,-0.4499820000000001 c3.117004,-0.07101400000000001 6.218018,-0.11502100000000003 9.292999,-0.137024 c1.537018,-0.009979000000000003 3.071991,-0.022980000000000007 4.597015,-0.018982000000000002 l78.136993,0.17599500000000004 l-5.419006,22.497986 l2.19101,0.939026 c1.0939940000000001,0.39599600000000007 3.10498,0.5809940000000001 4.048981,0.5869750000000001 c0.532013,0.003021000000000001 1.098999,-0.04599000000000001 1.683014,-0.15597500000000003 c0.19400000000000003,-0.03701800000000001 0.3899840000000001,-0.08902000000000003 0.587006,-0.137024 c0.19000200000000003,-0.048004000000000005 0.39599600000000007,-0.09799200000000004 0.587006,-0.15698200000000004 c0.3929750000000001,-0.12100200000000001 0.790985,-0.264008 1.172974,-0.43002300000000004 c1.141022,-0.49697900000000006 2.213013,-1.208984 2.9940189999999998,-2.073975 c0.005981000000000002,-0.007019000000000002 0.013000000000000003,-0.013000000000000003 0.018982000000000002,-0.020020000000000003 c0.3910220000000001,-0.43600500000000003 0.6960140000000001,-0.9079900000000001 0.920013,-1.427979 l7.609985,-19.603027 l68.824005,0.15701300000000004 c0.46801800000000005,0.23400900000000002 0.924011,0.466003 1.389008,0.6849980000000002 c1.8649900000000001,0.8760070000000001 3.700989,1.626007 5.536011,2.269012 c0.915985,0.3209840000000001 1.826996,0.6109920000000001 2.738983,0.8800050000000001 c3.192993,0.9440000000000001 6.378021,1.597992 9.606018,2.034973 c1.8439940000000001,0.25 3.709991,0.43402100000000005 5.595001,0.567017 c0.9429930000000001,0.06698600000000002 1.8999940000000002,0.11300700000000001 2.855988,0.15698200000000004 c1.914001,0.08801300000000002 3.842987,0.133026 5.829987,0.15600600000000003 c3.973999,0.04699700000000001 8.126007,0 12.521027,0 c6.516998,0 12.721954,-0.33200100000000005 18.644012,-0.977997 c2.368958,-0.257996 4.690002,-0.5619810000000001 6.964966,-0.919006 c4.549011,-0.7149960000000001 8.906982,-1.639984 13.087036,-2.738983 c1.045959,-0.274994 2.088989,-0.563019 3.1109620000000002,-0.8609920000000001 c3.067017,-0.894012 6.018005,-1.894012 8.882019,-2.993011 c0.9539790000000001,-0.36700400000000005 1.9039920000000001,-0.7269900000000001 2.8369750000000002,-1.11499 c1.864014,-0.778015 3.682007,-1.601013 5.458008,-2.464996 c0.8880000000000001,-0.43200700000000003 1.7750240000000002,-0.8770140000000001 2.640991,-1.3310240000000002 c1.7319950000000002,-0.906982 3.421997,-1.8649900000000001 5.067017,-2.855988 c0.8220210000000001,-0.494995 1.625,-1.01001 2.426025,-1.526001 c4.002991,-2.5790100000000002 7.738953,-5.399994 11.208984,-8.471008 c2.77301,-2.453979 5.38501,-5.057983 7.825989,-7.806 c0.002991000000000001,-0.0039980000000000016 -0.002991000000000001,-0.015991000000000005 0,-0.018982000000000002 c0.6069950000000002,-0.6849980000000002 1.211975,-1.372009 1.799988,-2.074005 c0.002991000000000001,-0.0039980000000000016 -0.002991000000000001,-0.015991000000000005 0,-0.020020000000000003 c0.587036,-0.7009890000000001 1.1740110000000001,-1.412994 1.741028,-2.131989 c0.002991000000000001,-0.0039980000000000016 -0.002991000000000001,-0.015991000000000005 0,-0.019989000000000003 c1.705994,-2.165009 3.325989,-4.394012 4.85199,-6.710022 c0.002991000000000001,-0.0039980000000000016 -0.004028000000000001,-0.014984000000000003 0,-0.019989000000000003 c0.505981,-0.769012 1.018982,-1.541992 1.505981,-2.328003 c0.002991000000000001,-0.005005000000000001 -0.002991000000000001,-0.014008000000000001 0,-0.018982000000000002 c1.465027,-2.365021 2.8590090000000004,-4.791016 4.147034,-7.297028 c0.002991000000000001,-0.004974000000000001 -0.0020140000000000006,-0.014984000000000003 0,-0.019989000000000003 c0.42797900000000005,-0.8320010000000001 0.8439940000000001,-1.6759950000000003 1.252991,-2.523987 c0.0020140000000000006,-0.005005000000000001 -0.002991000000000001,-0.014008000000000001 0,-0.019012 c0.40802000000000005,-0.8469850000000001 0.8229980000000001,-1.700989 1.211975,-2.562988 c0.002991000000000001,-0.006012000000000002 -0.0020140000000000006,-0.014008000000000001 0,-0.019012 c0.781006,-1.7300110000000002 1.527039,-3.4759830000000003 2.231018,-5.263 c0.0020140000000000006,-0.005981000000000002 -0.002991000000000001,-0.014008000000000001 0,-0.019989000000000003 c0.3499760000000001,-0.8900150000000001 0.6849980000000002,-1.795013 1.016968,-2.699005 c0.0020140000000000006,-0.006012000000000002 -0.0019530000000000007,-0.014008000000000001 0,-0.019989000000000003 c0.332031,-0.9049990000000001 0.6650390000000002,-1.820007 0.978027,-2.739014 c0.3129880000000001,-0.9179990000000001 0.6250000000000001,-1.846008 0.919983,-2.777985 c0.0020140000000000006,-0.006012000000000002 -0.0019530000000000007,-0.014008000000000001 0,-0.019012 c0.29400600000000005,-0.932007 0.585022,-1.873016 0.8610230000000001,-2.817993 c0.0009770000000000004,-0.006012000000000002 -0.0020140000000000006,-0.013000000000000003 0,-0.019012 c0.27502400000000005,-0.945007 0.544006,-1.898987 0.802002,-2.855988 c0.0009770000000000004,-0.007019000000000002 -0.0020140000000000006,-0.014008000000000001 0,-0.020020000000000003 c0.775024,-2.885986 1.481995,-5.825989 2.093018,-8.822998 l0,-0.019989000000000003 c0.20196500000000003,-0.9949950000000001 0.38299600000000006,-2.006012 0.566956,-3.011993 l0,-0.020020000000000003 c1.2990110000000001,-7.085999 2.16803,-14.437988 2.6020510000000003,-22.048004 c0.0009770000000000004,-0.006989000000000003 0,-0.013000000000000003 0,-0.019989000000000003 c0.06195100000000001,-1.082001 0.11200000000000002,-2.175995 0.15698200000000004,-3.266998 c0,-0.005981000000000002 -0.0010380000000000003,-0.013000000000000003 0,-0.018982000000000002 c0.08898900000000001,-2.1900020000000002 0.15399200000000005,-4.387009 0.17596400000000004,-6.613022 c0,-0.0059970000000000015 0,-0.013000000000000003 0,-0.018997000000000003 c0.010010000000000002,-1.117004 0.006042000000000002,-2.23999 0,-3.36499 c0,-0.3980100000000001 -0.013977000000000003,-0.7960050000000001 -0.019958000000000007,-1.194 c0.006958000000000002,-0.39700300000000005 0.019958000000000007,-0.795013 0.019958000000000007,-1.193008 c0.006042000000000002,-1.125 0.010010000000000002,-2.248993 0,-3.365005 c0,-0.006989000000000003 0,-0.012985000000000002 0,-0.019989000000000003 c-0.021973000000000006,-2.225006 -0.08697500000000002,-4.423004 -0.17596400000000004,-6.612 c-0.0010380000000000003,-0.0070040000000000015 0,-0.013000000000000003 0,-0.020004000000000004 c-0.04498300000000001,-1.091003 -0.09503200000000003,-2.184998 -0.15698200000000004,-3.266998 c0,-0.0059970000000000015 0.0009770000000000004,-0.013000000000000003 0,-0.018997000000000003 c-0.43402100000000005,-7.611008 -1.30304,-14.962997 -2.6020510000000003,-22.049011 l0,-0.018997000000000003 c-0.18396000000000004,-1.006989 -0.36499000000000004,-2.01799 -0.566956,-3.013 l0,-0.018997000000000003 c-0.6110230000000001,-2.998001 -1.317993,-5.938004 -2.093018,-8.824005 c-0.0020140000000000006,-0.0059970000000000015 0.0009770000000000004,-0.013000000000000003 0,-0.018997000000000003 c-0.257996,-0.9579930000000001 -0.5269780000000001,-1.9109950000000002 -0.802002,-2.8560030000000003 c-0.0020140000000000006,-0.006989000000000003 0.0009770000000000004,-0.013992000000000003 0,-0.019989000000000003 c-0.276001,-0.945007 -0.567017,-1.88501 -0.8610230000000001,-2.8170010000000003 c-0.0019530000000000007,-0.0059970000000000015 0.0020140000000000006,-0.014008000000000001 0,-0.020004000000000004 c-0.29498300000000005,-0.931992 -0.6069950000000002,-1.858994 -0.919983,-2.778 c-0.3129880000000001,-0.9179990000000001 -0.6459960000000001,-1.834 -0.978027,-2.738998 c-0.0019530000000000007,-0.005005000000000001 0.0020140000000000006,-0.014008000000000001 0,-0.018997000000000003 c-0.3319700000000001,-0.9049990000000001 -0.6669920000000001,-1.8090060000000001 -1.016968,-2.699997 c-0.002991000000000001,-0.006012000000000002 0.0020140000000000006,-0.014008000000000001 0,-0.020004000000000004 c-0.7039790000000001,-1.787003 -1.450012,-3.533005 -2.231018,-5.262009 c-0.0020140000000000006,-0.004990000000000001 0.002991000000000001,-0.013992000000000003 0,-0.019989000000000003 c-0.3889770000000001,-0.8620000000000001 -0.8039550000000001,-1.715012 -1.211975,-2.562012 c-0.002991000000000001,-0.0059970000000000015 0.0020140000000000006,-0.014999000000000002 0,-0.019989000000000003 c-0.408997,-0.8470000000000001 -0.825012,-1.6920010000000003 -1.252991,-2.524002 c-0.0020140000000000006,-0.005005000000000001 0.002991000000000001,-0.014008000000000001 0,-0.018997000000000003 c-1.288025,-2.5070040000000002 -2.682007,-4.9320070000000005 -4.147034,-7.298004 c-0.002991000000000001,-0.0039980000000000016 0.002991000000000001,-0.014008000000000001 0,-0.018997000000000003 c-0.48700000000000004,-0.785004 -1,-1.5590060000000001 -1.505981,-2.328003 c-0.004028000000000001,-0.005005000000000001 0.002991000000000001,-0.014999000000000002 0,-0.020004000000000004 c-1.526001,-2.315994 -3.1459960000000002,-4.544998 -4.85199,-6.7099910000000005 c-0.002991000000000001,-0.0039980000000000016 0.002991000000000001,-0.016006000000000003 0,-0.018997000000000003 c-0.567017,-0.7190090000000001 -1.1539920000000001,-1.431 -1.741028,-2.133011 c-0.002991000000000001,-0.0039980000000000016 0.002991000000000001,-0.015991000000000005 0,-0.018997000000000003 c-0.588013,-0.7019960000000001 -1.192993,-1.389999 -1.799988,-2.074005 c-0.002991000000000001,-0.0039980000000000016 0.002991000000000001,-0.015991000000000005 0,-0.019989000000000003 c-2.440979,-2.7470090000000003 -5.052979,-5.352005 -7.825989,-7.806 c-3.470032,-3.070999 -7.2059940000000005,-5.891006 -11.208984,-8.471008 c-0.8010250000000001,-0.5159910000000001 -1.6040040000000002,-1.029999 -2.426025,-1.525986 c-1.6450200000000001,-0.990005 -3.335022,-1.949005 -5.067017,-2.856018 c-0.865967,-0.453003 -1.7529910000000002,-0.8979950000000002 -2.640991,-1.329987 c-1.776001,-0.8650050000000001 -3.5939940000000004,-1.6880040000000003 -5.458008,-2.464996 c-0.932983,-0.3890080000000001 -1.8829960000000001,-0.7490080000000001 -2.8369750000000002,-1.115021 c-2.864014,-1.099991 -5.815002,-2.098991 -8.882019,-2.993988 c-1.021973,-0.29800400000000005 -2.0650020000000002,-0.5859990000000002 -3.1109620000000002,-0.8600010000000001 c-4.180054,-1.099998 -8.538025,-2.024002 -13.087036,-2.738998 c-2.274963,-0.35800200000000004 -4.596008,-0.6620030000000001 -6.964966,-0.920006 c-5.921021,-0.6459960000000001 -12.127014,-0.978996 -18.644012,-0.978996 c-4.39502,0 -8.547028000000001,-0.04599800000000001 -12.521027,0 c-1.985992,0.023003000000000006 -3.915985,0.06900000000000002 -5.828979,0.15699800000000005 c-0.9570010000000001,0.04299900000000001 -1.914001,0.09000400000000003 -2.8569950000000004,0.15600600000000003 c-1.88501,0.13299600000000003 -3.75,0.317993 -5.595001,0.5679930000000001 c-3.22702,0.43700400000000006 -6.413025,1.090004 -9.606018,2.034004 c-0.911987,0.269997 -1.8229980000000001,0.5599980000000001 -2.738007,0.8799970000000001 c-1.8359990000000002,0.6440050000000002 -3.671997,1.394005 -5.536987,2.270004 c-0.464996,0.21799500000000005 -0.9209900000000001,0.450996 -1.389008,0.6849980000000002 l-68.824005,0.15600600000000003 l-7.609985,-19.602608 c-0.22299200000000005,-0.5196000000000001 -0.528992,-0.991295 -0.920013,-1.428101 c-0.005981000000000002,-0.006599000000000002 -0.013000000000000003,-0.012901000000000001 -0.018982000000000002,-0.019600000000000003 c-0.781006,-0.8646010000000002 -1.8529970000000002,-1.576996 -2.993011,-2.0737 c-0.38299600000000006,-0.16659500000000005 -0.781006,-0.30949400000000005 -1.173981,-0.43049600000000005 c-0.19101000000000004,-0.05830400000000001 -0.39700300000000005,-0.10920000000000002 -0.587006,-0.15640300000000004 c-0.19702100000000003,-0.04879800000000001 -0.39300500000000005,-0.10039500000000001 -0.587006,-0.137001 c-0.5840150000000001,-0.11010000000000002 -1.151001,-0.15959900000000005 -1.683014,-0.15650200000000003 l0,-0.00019800000000000007 l0,0 l0,-0.00009900000000000003 z" id="path3855" stroke-miterlimit="4" stroke-width="14" stroke="darkred" fill="red" transform="rotate(-180 303.1155090332031,151.6144104003906) " class=""/>
  <path d="m109.1071088178711,61.77162935498046 l-2.778015,1.467285 c0.6192700000000001,0.724213 1.124084,1.520416 1.486877,2.406342 c3.003662,7.335266 -6.721069,18.302795 -16.824547,22.400391 c-0.32349400000000006,0.131195 -1.134895,0.5262450000000001 -2.132454,1.036865 l8.529694,-2.425903 c10.834045,-5.2948 17.19751,-14.450165 14.39875,-21.285278 c-0.573555,-1.4006349999999999 -1.487007,-2.608093 -2.680244,-3.599701 l-0.00006100000000000002,0 z" id="path3757" fill="url(#linearGradient4149)" transform="rotate(-179.93699645996094 100.65290069580077,75.42670440673827) " class=""/>
  <path d="m103.73198681787109,64.55895235498048 l-2.778015,1.467285 c0.619202,0.724213 1.124092,1.520416 1.486877,2.406342 c3.003662,7.335266 -6.721069,18.302795 -16.824585,22.400391 c-0.32354000000000005,0.131195 -1.134956,0.5262450000000001 -2.132446,1.036865 l8.529663,-2.425903 c10.834106,-5.2948 17.197571,-14.450165 14.398682,-21.285248 c-0.5734790000000001,-1.400696 -1.486938,-2.608124 -2.6801150000000002,-3.5997310000000002 l-0.00006100000000000002,0 z" id="path3787" fill="url(#linearGradient4203)" transform="rotate(-179.93699645996094 95.27690124511719,78.21370697021483) " class=""/>
  <path d="m99.85439281787109,65.43885035498047 l-2.778015,1.467285 c0.619202,0.724213 1.124023,1.520416 1.4868160000000001,2.406342 c3.00367,7.335266 -6.721077,18.302765 -16.824524,22.400391 c-0.32354700000000003,0.131195 -1.134949,0.5262450000000001 -2.132446,1.036865 l8.529724,-2.425903 c10.834045,-5.2948 17.19751,-14.450165 14.398682,-21.285278 c-0.573547,-1.4006349999999999 -1.487,-2.608093 -2.6801760000000003,-3.599701 l-0.00006100000000000002,0 z" id="path3752" fill="url(#linearGradient4155)" transform="rotate(-179.93699645996094 91.40090179443361,79.0947036743164) " class=""/>
  <path d="m119.34697681787108,58.65522035498046 l-3.873596,1.154236 c0.6011350000000001,1.072327 1.035767,2.211365 1.2716669999999999,3.423645 c1.95282,10.037811 -13.122986,21.462799 -26.93885,24.102417 c-2.125359,0.406067 -18.082474,5.368927 -20.13205,5.511932 l0,2.5823970000000003 l25.94236,-7.605194 c16.455688,-3.440918 28.139648,-14.053284 26.215088,-23.945923 c-0.37292500000000006,-1.916718 -1.224609,-3.668335 -2.484558,-5.223511 l-0.00006100000000000002,0 z" id="path3735" fill="url(#linearGradient4205)" transform="rotate(-179.93699645996094 95.85590362548828,77.0427017211914) " class=""/>
  <path d="m119.34697681787108,58.65522035498046 l-3.873596,1.154236 c0.6011350000000001,1.072327 1.035767,2.211365 1.2716669999999999,3.423645 c1.95282,10.037811 -13.122986,21.462799 -26.93885,24.102417 c-2.125359,0.406067 -18.082474,5.368927 -20.13205,5.511932 l0,2.5823970000000003 l25.94236,-7.605194 c16.455688,-3.440918 28.139648,-14.053284 26.215088,-23.945923 c-0.37292500000000006,-1.916718 -1.224609,-3.668335 -2.484558,-5.223511 l-0.00006100000000000002,0 z" id="path3783" fill="url(#linearGradient4207)" transform="rotate(-179.93699645996094 95.85590362548828,77.0427017211914) " class=""/>
  <path d="m115.34743481787109,61.80033135498047 l-2.481628,1.3107600000000001 c0.5531619999999999,0.6469730000000001 1.00415,1.358246 1.328186,2.149658 c2.6832890000000003,6.552795 -6.004028,16.350281 -15.029633,20.010742 c-0.289063,0.11721800000000002 -1.013916,0.470154 -1.904968,0.92627 l7.619751,-2.167084 c9.678253,-4.730011 15.362885,-12.908691000000001 12.86264,-19.014618 c-0.512329,-1.251251 -1.328308,-2.329926 -2.394226,-3.215729 l-0.00012200000000000004,0 z" id="path3799" fill="url(#linearGradient4209)" transform="rotate(-179.93699645996094 107.79489898681639,73.99869537353514) " class=""/>
  <path d="m123.9950788178711,59.57024335498048 l-2.481598,1.310791 c0.5531010000000001,0.646912 1.004089,1.358185 1.3281560000000001,2.149628 c2.6832890000000003,6.552765 -6.003998,16.350281 -15.029755,20.010742 c-0.28894000000000003,0.11724900000000002 -1.013855,0.470154 -1.904915,0.92627 l7.619759,-2.167114 c9.678253,-4.72998 15.362885,-12.90863 12.86264,-19.014557 c-0.51239,-1.251251 -1.328308,-2.329926 -2.394226,-3.215698 l-0.00006100000000000002,-0.00006100000000000002 z" id="path3803" fill="url(#linearGradient4153)" transform="rotate(-179.93699645996094 116.44190216064452,71.77069854736327) " class=""/>
  <path d="m480.5005108178711,55.224205354980455 c5.191711,-1.266693 9.694519,-0.9257810000000001 12.393921,3.622986 l-1.560913,11.204041 c-4.304077,3.864685 -8.608185,3.0994260000000002 -12.912262,0.09732100000000003 l2.079224,-14.924347000000001 l0.00003100000000000001,0 z" id="rect3861" fill="url(#linearGradient4211)" transform="rotate(-179.93699645996094 485.6559143066406,63.63469696044921) " class=""/>
  <path d="m468.3012618178711,54.22231335498046 c5.102325,-0.7576290000000002 9.494904,-0.35861200000000004 11.796295,3.448273 l-1.485657,10.663788 c-4.059143,1.862335 -8.127747,3.2614140000000003 -12.289612,0.09259000000000003 l1.979004,-14.204651 l-0.00003100000000000001,0 z" id="path3864" fill="url(#linearGradient4213)" transform="rotate(-179.93699645996094 473.2109069824219,62.105705261230455) " class=""/>
  <path d="m108.94972981787109,233.01851635498048 l-2.778023,-1.467255 c0.6192700000000001,-0.724213 1.124092,-1.5204469999999999 1.486885,-2.406372 c3.003662,-7.335266 -6.721069,-18.302765 -16.824554,-22.40036 c-0.3234860000000001,-0.131226 -1.1348880000000001,-0.526276 -2.132446,-1.036896 l8.529686,2.425903 c10.834053,5.2948 17.197517,14.450165 14.39875,21.285278 c-0.573547,1.400665 -1.487,2.608093 -2.680237,3.599701 l-0.00006100000000000002,0 z" id="path4165" fill="url(#linearGradient4185)" transform="rotate(-179.93699645996094 100.49590301513672,219.3627014160156) " class=""/>
  <path d="m103.58071181787109,230.21953535498045 l-2.778008,-1.467285 c0.6191940000000001,-0.724213 1.124077,-1.5204469999999999 1.4868700000000001,-2.406311 c3.003654,-7.335327 -6.721069,-18.302826 -16.824585,-22.400421 c-0.32354700000000003,-0.131195 -1.134949,-0.526276 -2.132446,-1.036896 l8.529655,2.425903 c10.834114,5.2948 17.197586,14.450195 14.398689000000001,21.285278 c-0.5734859999999999,1.400665 -1.486938,2.608124 -2.6801150000000002,3.5997310000000002 l-0.00006100000000000002,0 z" id="path4167" fill="url(#linearGradient4187)" transform="rotate(-179.93699645996094 95.12590026855467,216.56372070312497) " class=""/>
  <path d="m99.7050398178711,229.32720135498045 l-2.778023,-1.467255 c0.619217,-0.724213 1.124031,-1.520416 1.4868240000000001,-2.406342 c3.003662,-7.335297 -6.721069,-18.302795 -16.824524,-22.400391 c-0.32354700000000003,-0.131226 -1.134949,-0.526276 -2.132446,-1.036865 l8.529716,2.425903 c10.834053,5.2948 17.19751,14.450134 14.398697,21.285248 c-0.573555,1.400665 -1.487007,2.608124 -2.680183,3.599701 l-0.00006100000000000002,0 z" id="path4169" fill="url(#linearGradient4189)" transform="rotate(-179.93699645996094 91.25189971923827,215.67269897460935) " class=""/>
  <path d="m115.18694281787108,233.0015793549805 l-2.481628,-1.310791 c0.5531619999999999,-0.646912 1.00415,-1.358215 1.328186,-2.149628 c2.6832890000000003,-6.552795 -6.004028,-16.350281 -15.029633,-20.010773 c-0.28907000000000005,-0.11721800000000002 -1.013916,-0.470123 -1.904968,-0.926239 l7.619751,2.167084 c9.678253,4.72998 15.362885,12.908661 12.86264,19.014648 c-0.512329,1.251221 -1.328308,2.329895 -2.394226,3.215698 l-0.00012200000000000004,0 z" id="path4175" fill="url(#linearGradient4195)" transform="rotate(-179.93699645996094 107.63490295410155,220.80371093749994) " class=""/>
  <path d="m123.8296428178711,235.25054135498044 l-2.481598,-1.3107600000000001 c0.5531010000000001,-0.6469420000000001 1.004089,-1.358246 1.3281560000000001,-2.149628 c2.6832890000000003,-6.552795 -6.003998,-16.350281 -15.029747,-20.010773 c-0.28894000000000003,-0.11721800000000002 -1.013863,-0.470123 -1.904915,-0.926239 l7.619751,2.167084 c9.678253,4.72998 15.362885,12.908661 12.86264,19.014587 c-0.51239,1.251221 -1.328308,2.329895 -2.394226,3.215698 l-0.00006100000000000002,0.00003100000000000001 z" id="path4177" fill="url(#linearGradient4197)" transform="rotate(-179.93699645996094 116.27689361572266,223.05168151855466) " class=""/>
  <path d="m468.1138838178711,241.3824993549805 c5.102325,0.7576290000000002 9.494904,0.35858200000000007 11.796295,-3.448303 l-1.485657,-10.663757 c-4.059143,-1.862335 -8.127747,-3.2614140000000003 -12.289612,-0.09262100000000004 l1.979004,14.204681 l-0.00003100000000000001,0 z" id="path4181" fill="url(#linearGradient4201)" transform="rotate(-179.93699645996094 473.0229187011718,233.49771118164062) " class=""/>
 </g>
</svg>